# xmcd
# 
# Track frame offsets:
#	150
#	19762
#	35325
#	52950
#	66875
#	93712
#	116900
#	134625
#	149325
#	166500
#	187650
#
# Disc length: 2521 seconds
#
# Revision: 1
# Processed by: cddbd v1.5.1PL0 Copyright (c) Steve Scherf et al.
# Submitted via: Audio-CD-Archiv 3.00.487
#
DISCID=9409d70b
DTITLE=Striekspöen - Oh, Donnerkiel
DYEAR=1900
DGENRE=blues
TTITLE0=Oh, Donnerkiel
TTITLE1=Cronenberger Samba
TTITLE2=Pitter Nömmes
TTITLE3=Wat bie us loss es inne "Family"
TTITLE4=Samsdag Morgenblues
TTITLE5=Anton vanne Gathe
TTITLE6=Aber Memphis ist viel zu weit weg
TTITLE7=Komm vie gont ens em Zoo
TTITLE8=De Moder
TTITLE9=Wenn en Vohwinkel wear Flohmatt es
TTITLE10=Alle Taler rollen
EXTD=
EXTT0=
EXTT1=
EXTT2=
EXTT3=
EXTT4=
EXTT5=
EXTT6=
EXTT7=
EXTT8=
EXTT9=
EXTT10=
PLAYORDER=
